# xmcd
#
# Track frame offsets:
#	150
#	27331
#	45794
#	68787
#	88591
#	116502
#	134907
#	154083
#	174387
#	194108
#	221025
#	244453
#	263313
#	280540
#
# Disc length: 4012 seconds
#
# Revision: 3
# Processed by: cddbd v1.5.2PL0 Copyright (c) Steve Scherf et al.
# Submitted via: EZCDAudioConverter 8.0.2.1
#
DISCID=c70faa0e
DTITLE=Đàm Vĩnh Hưng - Vol 05. Giọt Nước Mắt Cho Đời
DYEAR=2003
DGENRE=
TTITLE0=Giọt Nước Mắt Cho Đời
TTITLE1=Nếu có yêu tôi
TTITLE2=Tình yêu còn đâu
TTITLE3=Nỗi đau ngọt ngào
TTITLE4=Khi tình bay xa
TTITLE5=Cô đơn mình anh (remix)
TTITLE6=Mơ về em
TTITLE7=Tiếng gió xôn xao
TTITLE8=Ta mãi bên nhau
TTITLE9=Nụ hôn xa vời
TTITLE10=Giây phút chia xa
TTITLE11=Ai đưa em về
TTITLE12=Tàn tro (remix)
TTITLE13=Vùng trời bình yên (remix)
EXTD=
EXTT0=
EXTT1=
EXTT2=
EXTT3=
EXTT4=
EXTT5=
EXTT6=
EXTT7=
EXTT8=
EXTT9=
EXTT10=
EXTT11=
EXTT12=
EXTT13=
PLAYORDER=
